<mxfile host="app.diagrams.net" agent="Mozilla/5.0 (Windows NT 10.0; Win64; x64) AppleWebKit/537.36 (KHTML, like Gecko) Chrome/138.0.0.0 Safari/537.36" version="28.0.7">
  <diagram name="Page-1" id="FCaQWpzzxzcfZBVpQmtY">
    <mxGraphModel dx="1306" dy="705" grid="1" gridSize="10" guides="1" tooltips="1" connect="1" arrows="1" fold="1" page="1" pageScale="1" pageWidth="827" pageHeight="1169" math="0" shadow="0">
      <root>
        <mxCell id="0" />
        <mxCell id="1" parent="0" />
        <mxCell id="hyn7PzRs62b-yIqnviZV-11" value="&lt;b&gt;&lt;font style=&quot;font-size: 14px;&quot;&gt;PLANNING&lt;/font&gt;&lt;/b&gt;" style="shape=step;perimeter=stepPerimeter;whiteSpace=wrap;html=1;fixedSize=1;fillColor=#e6d0de;gradientColor=#d5739d;strokeColor=#996185;" vertex="1" parent="1">
          <mxGeometry x="320" y="80" width="120" height="80" as="geometry" />
        </mxCell>
        <mxCell id="hyn7PzRs62b-yIqnviZV-12" value="&lt;b&gt;&lt;font style=&quot;font-size: 14px;&quot;&gt;DEVELOP&lt;/font&gt;&lt;/b&gt;" style="shape=step;perimeter=stepPerimeter;whiteSpace=wrap;html=1;fixedSize=1;direction=south;rotation=-45;fillColor=#dae8fc;gradientColor=#7ea6e0;strokeColor=#6c8ebf;" vertex="1" parent="1">
          <mxGeometry x="550" y="110" width="80" height="120" as="geometry" />
        </mxCell>
        <mxCell id="hyn7PzRs62b-yIqnviZV-13" value="&lt;span style=&quot;font-size: 14px;&quot;&gt;&lt;b&gt;CODE&lt;/b&gt;&lt;/span&gt;&lt;div style=&quot;text-align: left;&quot;&gt;&lt;span style=&quot;font-size: 14px;&quot;&gt;&lt;b&gt;CREATION&lt;/b&gt;&lt;/span&gt;&lt;/div&gt;" style="shape=step;perimeter=stepPerimeter;whiteSpace=wrap;html=1;fixedSize=1;direction=south;fillColor=#d5e8d4;gradientColor=#97d077;strokeColor=#82b366;" vertex="1" parent="1">
          <mxGeometry x="640" y="320" width="80" height="120" as="geometry" />
        </mxCell>
        <mxCell id="hyn7PzRs62b-yIqnviZV-14" value="&lt;b style=&quot;&quot;&gt;&lt;font style=&quot;font-size: 14px;&quot;&gt;VERSION&lt;/font&gt;&lt;/b&gt;&lt;div&gt;&lt;div style=&quot;text-align: left;&quot;&gt;&lt;b&gt;&lt;font size=&quot;3&quot;&gt;CONTROL&lt;/font&gt;&lt;/b&gt;&lt;/div&gt;&lt;div&gt;&lt;span style=&quot;font-size: 14px;&quot;&gt;&lt;b&gt;&lt;br&gt;&lt;/b&gt;&lt;/span&gt;&lt;/div&gt;&lt;/div&gt;" style="shape=step;perimeter=stepPerimeter;whiteSpace=wrap;html=1;fixedSize=1;direction=west;rotation=-30;fillColor=#fff2cc;gradientColor=#ffd966;strokeColor=#d6b656;" vertex="1" parent="1">
          <mxGeometry x="530" y="540" width="120" height="80" as="geometry" />
        </mxCell>
        <mxCell id="hyn7PzRs62b-yIqnviZV-15" value="&lt;div style=&quot;&quot;&gt;&lt;span style=&quot;font-size: 14px; background-color: transparent; color: light-dark(rgb(0, 0, 0), rgb(255, 255, 255));&quot;&gt;&lt;b&gt;INTEGRATE&lt;/b&gt;&lt;/span&gt;&lt;/div&gt;" style="shape=step;perimeter=stepPerimeter;whiteSpace=wrap;html=1;fixedSize=1;direction=west;fillColor=#e6d0de;gradientColor=#d5739d;strokeColor=#996185;align=center;" vertex="1" parent="1">
          <mxGeometry x="320" y="600" width="120" height="80" as="geometry" />
        </mxCell>
        <mxCell id="hyn7PzRs62b-yIqnviZV-16" value="&lt;b&gt;&lt;font style=&quot;font-size: 14px;&quot;&gt;DEPLOY&lt;/font&gt;&lt;/b&gt;" style="shape=step;perimeter=stepPerimeter;whiteSpace=wrap;html=1;fixedSize=1;direction=north;rotation=-60;fillColor=#fff2cc;gradientColor=#ffd966;strokeColor=#d6b656;" vertex="1" parent="1">
          <mxGeometry x="120" y="520" width="80" height="120" as="geometry" />
        </mxCell>
        <mxCell id="hyn7PzRs62b-yIqnviZV-17" value="&lt;b&gt;MONITOR&lt;/b&gt;" style="shape=step;perimeter=stepPerimeter;whiteSpace=wrap;html=1;fixedSize=1;direction=north;rotation=30;fillColor=#dae8fc;gradientColor=#7ea6e0;strokeColor=#6c8ebf;" vertex="1" parent="1">
          <mxGeometry x="120" y="130" width="80" height="120" as="geometry" />
        </mxCell>
        <mxCell id="hyn7PzRs62b-yIqnviZV-18" value="&lt;b&gt;&lt;font style=&quot;font-size: 14px;&quot;&gt;FEEDBACK&lt;/font&gt;&lt;/b&gt;" style="shape=step;perimeter=stepPerimeter;whiteSpace=wrap;html=1;fixedSize=1;direction=north;fillColor=#d5e8d4;gradientColor=#97d077;strokeColor=#82b366;" vertex="1" parent="1">
          <mxGeometry x="40" y="320" width="80" height="120" as="geometry" />
        </mxCell>
        <mxCell id="hyn7PzRs62b-yIqnviZV-23" value="" style="verticalLabelPosition=bottom;verticalAlign=top;html=1;shape=mxgraph.basic.donut;dx=25;fillColor=#9AC7BF;fontColor=#ffffff;strokeColor=#006EAF;" vertex="1" parent="1">
          <mxGeometry x="260" y="270" width="240" height="220" as="geometry" />
        </mxCell>
        <mxCell id="hyn7PzRs62b-yIqnviZV-28" value="" style="verticalLabelPosition=bottom;verticalAlign=top;html=1;shape=mxgraph.basic.diag_stripe;dx=10;rotation=-30;strokeColor=default;fillColor=#000000;" vertex="1" parent="1">
          <mxGeometry x="60" y="240" width="100" height="60" as="geometry" />
        </mxCell>
        <mxCell id="hyn7PzRs62b-yIqnviZV-29" value="" style="verticalLabelPosition=bottom;verticalAlign=top;html=1;shape=mxgraph.basic.diag_stripe;dx=10;direction=west;rotation=25;fillColor=#000000;" vertex="1" parent="1">
          <mxGeometry x="200" y="90" width="125.59" height="83.5" as="geometry" />
        </mxCell>
        <mxCell id="hyn7PzRs62b-yIqnviZV-32" value="" style="verticalLabelPosition=bottom;verticalAlign=top;html=1;shape=mxgraph.basic.diag_stripe;dx=10;direction=south;fillColor=#000000;fontColor=#ffffff;strokeColor=#6F0000;" vertex="1" parent="1">
          <mxGeometry x="630" y="220" width="60" height="110" as="geometry" />
        </mxCell>
        <mxCell id="hyn7PzRs62b-yIqnviZV-33" value="" style="verticalLabelPosition=bottom;verticalAlign=top;html=1;shape=mxgraph.basic.diag_stripe;dx=10;direction=west;fillColor=#000000;fontColor=#ffffff;strokeColor=#6F0000;" vertex="1" parent="1">
          <mxGeometry x="630" y="440" width="60" height="120" as="geometry" />
        </mxCell>
        <mxCell id="hyn7PzRs62b-yIqnviZV-34" value="" style="verticalLabelPosition=bottom;verticalAlign=top;html=1;shape=mxgraph.basic.diag_stripe;dx=10;strokeColor=#000000;fillColor=#000000;" vertex="1" parent="1">
          <mxGeometry x="420" y="600.38" width="120" height="39.62" as="geometry" />
        </mxCell>
        <mxCell id="hyn7PzRs62b-yIqnviZV-35" value="" style="verticalLabelPosition=bottom;verticalAlign=top;html=1;shape=mxgraph.basic.diag_stripe;dx=10;direction=north;rotation=-45;fillColor=#000000;" vertex="1" parent="1">
          <mxGeometry x="231.87" y="570.38" width="52.79" height="120" as="geometry" />
        </mxCell>
        <mxCell id="hyn7PzRs62b-yIqnviZV-36" value="" style="verticalLabelPosition=bottom;verticalAlign=top;html=1;shape=mxgraph.basic.diag_stripe;dx=10;direction=south;rotation=15;fillColor=#000000;" vertex="1" parent="1">
          <mxGeometry x="58.54" y="431.12" width="70" height="110" as="geometry" />
        </mxCell>
        <mxCell id="hyn7PzRs62b-yIqnviZV-37" value="" style="verticalLabelPosition=bottom;verticalAlign=top;html=1;shape=mxgraph.basic.diag_stripe;dx=10;rotation=45;strokeColor=#1A1A1A;fillColor=#000000;" vertex="1" parent="1">
          <mxGeometry x="450.67" y="92.5" width="99.33" height="67.5" as="geometry" />
        </mxCell>
        <mxCell id="hyn7PzRs62b-yIqnviZV-39" value="&lt;b&gt;&lt;font style=&quot;font-size: 24px;&quot;&gt;DEVOPS&lt;/font&gt;&lt;/b&gt;&lt;div&gt;&lt;font style=&quot;&quot; size=&quot;3&quot;&gt;&lt;b&gt;LIFECYCLE&lt;/b&gt;&lt;/font&gt;&lt;/div&gt;" style="text;html=1;align=center;verticalAlign=middle;resizable=0;points=[];autosize=1;strokeColor=none;fillColor=none;" vertex="1" parent="1">
          <mxGeometry x="320" y="350" width="120" height="60" as="geometry" />
        </mxCell>
      </root>
    </mxGraphModel>
  </diagram>
</mxfile>
